<?xml version="1.0" encoding="UTF-8"?>
<svg width="21px" height="15px" viewBox="0 0 21 15" version="1.1" xmlns="http://www.w3.org/2000/svg" xmlns:xlink="http://www.w3.org/1999/xlink">
    <title>Path</title>
    <g id="Pharmagy-Demo-Screens-(4)" stroke="none" stroke-width="1" fill="none" fill-rule="evenodd">
        <g id="02" transform="translate(-35.000000, -62.000000)" fill="#FFFFFF" fill-rule="nonzero">
            <g id="top-navigation" transform="translate(35.000000, 59.000000)">
                <g id="Group" transform="translate(0.000000, 3.000000)">
                    <path d="M14.1411559,0.225589378 C13.8550651,-0.0751964592 13.3789139,-0.0751964592 13.0828199,0.225589378 C12.7967291,0.516213531 12.7967291,0.999909674 13.0828199,1.28985638 L18.4491902,6.74126095 L0.740901874,6.74126095 C0.32810416,6.7419384 0,7.07524162 0,7.49458044 C0,7.91391925 0.32810416,8.2580616 0.740901874,8.2580616 L18.4491902,8.2580616 L13.0828199,13.6993045 C12.7967291,14.0000903 12.7967291,14.4844639 13.0828199,14.7744106 C13.3789139,15.0751965 13.855732,15.0751965 14.1411559,14.7744106 L20.7779295,8.03247222 C21.0740235,7.74184807 21.0740235,7.25815193 20.7779295,6.96820522 L14.1411559,0.225589378 Z" id="Path" transform="translate(10.500000, 7.500000) scale(-1, 1) translate(-10.500000, -7.500000) "></path>
                </g>
            </g>
        </g>
    </g>
</svg>