<?xml version="1.0" encoding="UTF-8"?>
<svg width="22px" height="24px" viewBox="0 0 22 24" version="1.1" xmlns="http://www.w3.org/2000/svg" xmlns:xlink="http://www.w3.org/1999/xlink">
    <title>home</title>
    <g id="Pharmagy-Demo-Screens-(4)" stroke="none" stroke-width="1" fill="none" fill-rule="evenodd">
        <g id="01" transform="translate(-35.000000, -764.000000)" fill="#B0BED4" fill-rule="nonzero">
            <g id="main-menu" transform="translate(0.000000, 702.000000)">
                <g id="home" transform="translate(35.000000, 62.000000)">
                    <path d="M21.0865683,9.38554688 L10.9873128,0.218859375 C10.6582502,-0.07921875 10.152182,-0.071953125 9.83235069,0.235265625 L0.294125496,9.40190625 C0.130848684,9.55884375 0.038535032,9.77470313 0.038535032,9.9999375 L0.038535032,23.1666094 C0.038535032,23.626875 0.415269411,23.9999531 0.880151492,23.9999531 L7.89352731,23.9999531 C8.35836205,23.9999531 8.73514377,23.626875 8.73514377,23.1666094 L8.73514377,17.0555156 L12.6626399,17.0555156 L12.6626399,23.1666094 C12.6626399,23.626875 13.0393743,23.9999531 13.5042564,23.9999531 L20.5176322,23.9999531 C20.9824669,23.9999531 21.3592486,23.6271563 21.3592486,23.1666094 L21.3592486,9.99998939 C21.3592486,9.76635937 21.2604967,9.54360938 21.0865683,9.38554688 Z M19.6760631,22.3333125 L14.3458728,22.3333125 L14.3458728,16.2222187 C14.3458728,15.7619531 13.9690911,15.388875 13.5042564,15.388875 L7.89357465,15.388875 C7.42873991,15.388875 7.05195819,15.7619531 7.05195819,16.2222187 L7.05195819,22.3333125 L1.72176795,22.3333125 L1.72176795,10.3524844 L10.4349458,1.978875 L19.6760631,10.3666406 L19.6760631,22.3333125 L19.6760631,22.3333125 Z" id="Shape"></path>
                </g>
            </g>
        </g>
    </g>
</svg>