<?xml version="1.0" encoding="UTF-8"?>
<svg width="24px" height="24px" viewBox="0 0 24 24" version="1.1" xmlns="http://www.w3.org/2000/svg" xmlns:xlink="http://www.w3.org/1999/xlink">
    <title>calendar</title>
    <g id="Pharmagy-Demo-Screens-(4)" stroke="none" stroke-width="1" fill="none" fill-rule="evenodd">
        <g id="01" transform="translate(-102.000000, -764.000000)" fill="#3D8AFF" fill-rule="nonzero">
            <g id="main-menu" transform="translate(0.000000, 702.000000)">
                <g id="icons" transform="translate(35.000000, 62.000000)">
                    <g id="calendar" transform="translate(67.000000, 0.000000)">
                        <path d="M22.1469263,2.31323438 L1.46447346,2.31323438 C0.661355307,2.31323438 0.00798065311,2.96179688 0.00798065311,3.759 L0.00798065311,22.5541875 C0.00798065311,23.3514375 0.661355307,24 1.46447346,24 L22.1469263,24 C22.9500444,24 23.6034191,23.3514375 23.6034191,22.5542344 L23.6034191,3.75904688 C23.6034191,2.96184375 22.9500444,2.31323438 22.1469263,2.31323438 Z M21.8556561,22.2650625 L1.75579091,22.2650625 L1.75579091,4.04817188 L21.8556561,4.04817188 L21.8556561,22.2650625 L21.8556561,22.2650625 Z" id="Shape"></path>
                        <rect id="Rectangle" x="0.881885781" y="8.09639063" width="21.8476754" height="1.7349375"></rect>
                        <path d="M6.12531655,0 C5.64265231,0 5.25141142,0.388359375 5.25141142,0.86746875 L5.25141142,5.49398438 C5.25141142,5.97309375 5.64265231,6.36145313 6.12531655,6.36145313 C6.60798078,6.36145313 6.99922167,5.97309375 6.99922167,5.49398438 L6.99922167,0.86746875 C6.99922167,0.388359375 6.60798078,0 6.12531655,0 Z" id="Path"></path>
                        <path d="M17.7774007,0 C17.2947364,0 16.9034955,0.388359375 16.9034955,0.86746875 L16.9034955,5.49398438 C16.9034955,5.97309375 17.2947364,6.36145313 17.7774007,6.36145313 C18.2600649,6.36145313 18.6513058,5.97309375 18.6513058,5.49398438 L18.6513058,0.86746875 C18.6513058,0.388359375 18.2600649,0 17.7774007,0 Z" id="Path"></path>
                        <path d="M15.1556853,17.349375 L8.74703193,17.349375 C8.26436769,17.349375 7.8731268,17.7377344 7.8731268,18.2168437 C7.8731268,18.6959531 8.26436769,19.0843125 8.74703193,19.0843125 L15.1556853,19.0843125 C15.6383495,19.0843125 16.0295904,18.6959531 16.0295904,18.2168437 C16.0295904,17.7377344 15.6383495,17.349375 15.1556853,17.349375 Z" id="Path"></path>
                        <path d="M15.1556853,13.3012031 L8.74703193,13.3012031 C8.26436769,13.3012031 7.8731268,13.6895625 7.8731268,14.1686719 C7.8731268,14.6477812 8.26436769,15.0361406 8.74703193,15.0361406 L15.1556853,15.0361406 C15.6383495,15.0361406 16.0295904,14.6478281 16.0295904,14.1686719 C16.0295904,13.6895156 15.6383495,13.3012031 15.1556853,13.3012031 Z" id="Path"></path>
                    </g>
                </g>
            </g>
        </g>
    </g>
</svg>