<?xml version="1.0" encoding="UTF-8"?>
<svg width="25px" height="25px" viewBox="0 0 25 25" version="1.1" xmlns="http://www.w3.org/2000/svg" xmlns:xlink="http://www.w3.org/1999/xlink">
    <title>profile</title>
    <g id="Pharmagy-Demo-Screens-(4)" stroke="none" stroke-width="1" fill="none" fill-rule="evenodd">
        <g id="01" transform="translate(-316.000000, -764.000000)" fill="#B0BED4" fill-rule="nonzero">
            <g id="main-menu" transform="translate(0.000000, 702.000000)">
                <g id="icons" transform="translate(35.000000, 62.000000)">
                    <g id="profile" transform="translate(281.000000, 0.727273)">
                        <path d="M12.1223893,13.0447962 C15.7171857,13.0447962 18.6329228,10.123247 18.6329228,6.52138155 C18.6329228,2.91951605 15.7171425,0.0179520108 12.1223893,0.0179520108 C8.52763615,0.0179520108 5.61185592,2.93950118 5.61185592,6.52138155 C5.61185592,10.1032619 8.52759298,13.0447962 12.1223893,13.0447962 Z M12.1223893,1.71885096 C14.7585417,1.71885096 16.9154368,3.87997026 16.9154368,6.52138155 C16.9154368,9.16279284 14.7585417,11.3238689 12.1223893,11.3238689 C9.486237,11.3238689 7.32934192,9.16274958 7.32934192,6.52133829 C7.32934192,3.879927 9.48619383,1.71885096 12.1223893,1.71885096 Z" id="Shape"></path>
                        <path d="M0.858742998,23.2301183 L23.4659047,23.2301183 C23.9452051,23.2301183 24.3246477,22.849925 24.3246477,22.3696762 C24.3246477,17.8673119 20.6699712,14.1853761 16.1565085,14.1853761 L8.16813925,14.1853761 C3.67466538,14.1853761 0,17.8472835 0,22.3696762 C0,22.849925 0.379442573,23.2301183 0.858742998,23.2301183 Z M8.16813925,15.9062602 L16.1565085,15.9062602 C19.4317424,15.9062602 22.1278181,18.3475607 22.5472384,21.5091909 L1.77740934,21.5091909 C2.19678642,18.3675891 4.89290528,15.9062602 8.16813925,15.9062602 Z" id="Shape"></path>
                    </g>
                </g>
            </g>
        </g>
    </g>
</svg>